<?xml version="1.0" encoding="utf-8"?>
<!-- Designed by Vexels.com - 2019 All Rights Reserved - https://vexels.com/terms-and-conditions/  -->
<svg version="1.1" id="Layer_1" xmlns="http://www.w3.org/2000/svg" xmlns:xlink="http://www.w3.org/1999/xlink" x="0px" y="0px"
	 viewBox="0 0 1200 1200" enable-background="new 0 0 1200 1200" xml:space="preserve">
<path fill="transparent" stroke="white" stroke-width="2" d="M205.294,458.227c-9.066-23.385-17.559-51.394-3.143-71.867c14.117-20.048,43.061-22.216,62.639-36.977
	c8.92-6.725,15.782-16.143,19.45-26.694c0.775-2.228,1.415-4.629,0.871-6.925c-1.218-5.14-7.998-7.188-12.945-5.339
	c-4.948,1.849-8.401,6.265-11.589,10.477c1.076-23.552,13.098-46.378,31.911-60.588c10.795-8.154,23.544-13.517,33.974-22.132
	c16.15-13.34,25.432-33.547,29.473-54.101s3.331-41.708,2.605-62.643c27.743,14.528,43.012,49.432,34.851,79.667
	c25.615-12.84,43.462-38.44,50.851-66.123S449.386,77.737,442.2,50c27.72,25.621,42.467,64.623,38.632,102.175
	c14.421-19.473,19.459-45.586,13.318-69.026c19.502,21.114,28.45,51.529,23.49,79.84c14.775-12.63,21.465-33.981,16.54-52.785
	c14.609,17.365,21.736,40.82,19.258,63.378c26.665-2.966,51.873-17.312,68.041-38.722s23.067-49.582,18.621-76.041
	c18.06,13.798,23.165,39.705,18.343,61.915c-4.822,22.21-17.747,41.672-30.415,60.543c42.225,0.491,84.529-10.338,121.325-31.056
	c2.506,8.855-4.377,17.439-11.148,23.672c-17.31,15.933-37.396,28.841-59.079,37.967c28.175,20.609,53.14,46.71,67.558,78.501
	s17.342,69.727,3.005,101.555c-15.031,33.369-46.749,56.383-79.953,71.777c-15.917,7.379-32.427,13.34-48.933,19.241
	c-14.777,5.283-36.735,9.247-49.179,18.987c-13.117,10.267-26.973,51.106-8.761,63.247c8.532,5.688,35.549,24.173,49.769,15.642
	c14.22-8.532,32.342-27.017,15.46-41.237c0,0-12.616-17.974-25.414-4.721c-7.043,7.294-5.249,15.114,2.57,20.898
	c1.133,0.838,2.335,1.648,3.708,1.966c2.202,0.511,4.542-0.338,6.328-1.724c1.786-1.386,3.116-3.261,4.42-5.107
	c2.582,1.784,5.001,4.556,4.595,7.669c-0.849,6.505-11.076,9.113-16.337,9.603c-7.038,0.655-14.336-0.757-20.894-3.293
	c-10.534-4.074-16.606-14.868-16.766-25.871c-0.247-17.048,16.276-34.323,32.172-38.631c14.423-3.909,30.361-1.256,44.69,1.774
	c9.49,2.007,18.831,4.606,28.196,7.114c5.101,1.366,11.513,3.978,16.902,3.304c11.376-1.422,46.925-17.064,54.035-34.127
	c7.11-17.064,22.751-44.081,11.376-48.347c0,0,27.017,38.104-1.422,76.642c0,0,4.266,30.006,45.503,10.098
	c41.237-19.908,18.486-91.006,18.486-91.006s-27.017-47.315-41.237-50.675c0,0,61.144,13.704,81.052,64.895
	c0,0,19.908-89.584-58.3-160.682s-78.208-71.098-78.208-71.098s115.179,22.751,213.295,102.381s130.821,186.277,137.931,213.296
	c9.214,35.016,14.667,71.936,16.381,108.07c2.855,60.191-21.126,119.036-36.289,176.321c18.37-69.399,30.966-154.16,5.875-223.836
	c-17.794-49.412-32.778-98.178-63.526-141.596c-12.366-17.462-26.09-33.945-40.465-49.781c0,0,59.723,113.757,2.844,211.873
	c0,0,8.532-167.792-35.549-199.075c0,0,39.815,113.757-82.474,194.809c0,0,28.439-34.127,24.173-45.503
	c0,0-20.254,36.587-130.821,19.907c0,0,22.751,22.751,56.879,31.283c0,0-24.969,16.017-91.006-19.907
	c0,0,11.376,21.329,41.237,32.705c0,0-24.488,16.1-69.676-17.064c0,0-21.329,27.017-71.098,21.329s-82.474-39.815-82.474-39.815
	s4.266,54.035,14.22,63.988c0,0-44.081-25.595-54.035-93.85c0,0-28.439,21.329-8.532,48.347c0,0-29.861,4.266-32.705-59.722
	c0,0-25.595,24.173-11.376,44.081c0,0-24.173-17.064-27.017-31.283c0,0-12.798,55.457,15.642,69.676l8.532,11.376
	c0,0-8.532,4.266-19.908,0c0,0,11.376,25.595,41.237,17.064c29.861-8.532,34.127-27.017,34.127-27.017s11.376,22.751-9.954,35.549
	c-21.327,12.796-44.076,31.279-55.453,32.705c4.231-0.53,18.214,12.285,24.843,13.149c16.781,2.184,59.659-10.917,66.159-28.79
	c5.688-15.642,7.11-29.861,7.11-29.861s12.798,21.329,5.688,36.971s-7.11,15.642-7.11,15.642s51.191-44.081,71.098-51.191
	c19.907-7.11,100.959-31.283,143.618-17.064s123.711-1.422,142.196-21.329c0,0,1.422,27.017-18.486,54.035
	c0,0,10.422,31.509,58.152,49.715c16.787,6.403,34.654,9.503,52.62,9.711l27.44,0.317c0,0-3.126,28.42-88.444,24.154
	c0,0,7.11,56.879,68.254,76.786c0,0-12.798,15.642-62.566-12.798c0,0-5.688,29.861,12.798,48.347c0,0-17.064-4.812-29.861-22.314
	c0,0-45.503,91.99-135.087,100.522c0,0-18.486,18.486-7.11,31.283c0,0-35.549-21.329-35.549-35.549c0,0-93.85-4.266-130.821-29.861
	c0,0,5.688,34.127-15.642,44.081c0,0-22.751-56.879-56.879-46.925s-32.705,48.347-32.705,48.347s7.11,25.595,19.908,32.705
	c12.798,7.11,12.798,7.11,12.798,7.11s-38.393-2.844-59.722-24.173c-21.329-21.329-21.329-21.329-21.329-21.329
	c-2.212,18.584-2.565,39.981,3.614,57.816c12.546,36.209,55.493,67.386,93.128,71.392c2.252,0.24,19.36-0.629,19.859,0.192
	c0,0-31.283-51.191-18.486-71.098c0,0,34.127,42.659,52.613,42.659c0,0-22.751-61.144-7.11-78.208
	c8.305,15.516,18.5,30.519,30.057,43.774c36.984,42.419,96.61,40.339,144.844,21.636c69.592-26.985,68.258-34.11,68.254-34.127
	c2.195,11.337-22.177,36.604-28.47,43.596c-40.669,45.188-102.447,84.401-162.089,97.182c-23.183,4.967-47.309,10.512-71.139,8.515
	c15.811-9.326,29.634-22.003,40.29-36.949c-46.71,6.096-98.8,4.192-142.761-14.202c-40.311-16.869-76.489-49.673-95.126-89.609
	c0,0-39.815,8.532-56.879-17.064c0,0,44.081,1.422,58.301-36.971c0,0-51.191-15.642-46.925-45.503c0,0,14.218,21.92,41.233,9.541
	c23.948-10.974,35.815-36.862,59.614-48.76c29.77-14.883,64.873-27.12,98.514-25.679c20.077,0.86,39.553,6.723,58.884,12.214
	c47.993,13.632,97.539,25.31,147.299,21.68c18.121-1.322,36.713-4.928,51.62-15.316c23.876-16.639,33.516-46.763,41.643-74.707
	c-17.95,15.836-42.849,23.491-66.595,20.476c9.318-20.492,25.491-40.644,21.053-62.714c-1.336-6.643-4.52-12.782-8.246-18.442
	c-10.468-15.903-26.259-29.043-44.912-32.858c-18.653-3.816-39.986,3.243-49.99,19.443c-10.004,16.199-5.125,40.78,11.83,49.441
	c18.988,9.699,42.614-3.03,54.919-20.443c7.735,14.003-1.914,31.457-13.745,42.224c-11.584,10.542-26.191,18.604-41.844,19.144
	c-26.999,0.93-49.323-19.696-68.307-38.916c-1.951,12.639,2.224,26.083,10.991,35.394c-17.573-0.581-34.618-10.104-44.325-24.764
	c-28.516,11.198-57.969,20.888-88.475,23.711c-30.506,2.823-62.369-1.642-88.764-17.196c7.62,4.49,15.589,23.176,21.917,30.393
	c8.229,9.385,17.354,18.383,27.469,25.726c-20.795-8.592-68.269-20.595-77.749-43.347c-7.11-17.064,17.064,39.269,29.861,44.519
	c0,0-98.116-54.473-129.399-92.866c0,0,4.266,31.283,21.329,45.503c0,0-28.439-1.422-46.925-38.393c0,0-61.144,9.954-56.879-35.549
	c0,0,17.064,19.908,29.861,2.844c12.798-17.064,2.844-46.925-21.329-44.081s-35.549,35.549-35.549,35.549
	s-17.064-46.925,14.22-71.098c0,0,25.595-7.11,54.035,21.329c0,0-24.931-48.347-72.899-44.081c0,0-25.216,5.688-33.748,25.595
	c-8.532,19.907-8.532-39.132,21.329-44.451c29.861-5.318,41.237-6.74,46.925-15.272c5.688-8.532-2.844,1.422,8.532,7.11
	c11.376,5.688,32.705,4.266,17.064-15.642c-15.642-19.908-32.705-61.433-54.035-69.821c0,0,89.584,45.647,99.537,84.04
	c9.954,38.393,9.954,38.393,9.954,38.393s-28.439-9.954-31.283,2.844c-2.844,12.798-2.844,22.751,11.376,24.173
	c14.22,1.422,14.22,1.422,14.22,1.422s2.844,42.659,11.376,49.769c8.532,7.11,51.191,24.173,51.191,24.173
	s-49.769-69.676-41.237-109.491c0,0-12.798-31.283,15.642-93.85c28.439-62.566,170.636-82.474,170.636-82.474
	s136.509-7.11,170.636-46.925c27.406-31.974,56.785-84.476,22.389-121.784c-13.964-15.146-33.865-23.6-53.957-28.149
	c-63.541-14.389-134.191,9.123-176.438,58.718c34.308,5.169,70.936-11.919,89.016-41.531c4.453,23.769-9.794,49.702-32.244,58.691
	c17.006,5.624,36.062,1.081,51.498-8.006s27.933-22.315,40.207-35.361c-5.123,33.76-36.875,57.591-69.355,68.127
	c-32.48,10.536-67.334,11.556-100.24,20.679c-5.244,1.454-10.526,3.158-14.968,6.302c-6.158,4.359-10.143,11.057-14.709,17.063
	c-13.295,17.487-32.896,30.071-54.331,34.88c16.066-13.665,27.567-32.607,32.282-53.164c-23.524,18.548-55.316,21.215-84.321,28.706
	c-29.005,7.49-60.214,25.008-64.783,54.614C205.385,458.463,205.339,458.345,205.294,458.227z" />
</svg>
